<svg width="129" height="41" viewBox="0 0 129 41" fill="none" xmlns="http://www.w3.org/2000/svg">
<path d="M26.3554 35.3935C26.0908 35.6785 25.6938 35.9952 25.1645 36.3436C24.6646 36.7236 24.1205 37.0562 23.5324 37.3412C22.9443 37.6579 22.3415 37.9271 21.7239 38.1488C21.1358 38.4022 20.6506 38.5447 20.2683 38.5763C19.886 38.5763 19.5479 38.418 19.2538 38.1013C18.9597 37.7846 18.651 37.0562 18.3275 35.916C18.004 34.8075 17.6217 33.1923 17.1806 31.0704C16.769 28.9168 16.2396 26.0031 15.5927 22.3293C13.9165 24.1979 12.358 26.0031 10.9171 27.745C9.47618 29.4869 8.24111 31.1021 7.21189 32.5906C6.18267 34.0791 5.37399 35.3776 4.78587 36.4861C4.19774 37.5946 3.90368 38.4338 3.90368 39.0039C3.5508 38.9722 3.18322 38.8297 2.80094 38.5763C2.44806 38.323 2.12459 38.0221 1.83053 37.6737C1.53646 37.3254 1.28651 36.9453 1.08067 36.5336C0.904229 36.1219 0.81601 35.726 0.81601 35.3459C0.904229 34.9976 1.12478 34.5067 1.47765 33.8733C1.83053 33.2398 2.27162 32.5589 2.80094 31.8305C3.91838 30.2786 5.50632 28.4893 7.56477 26.4623C9.65262 24.4037 12.1669 22.1393 15.1075 19.669C13.1961 9.43937 10.4907 4.32457 6.99134 4.32457C7.34422 3.40612 7.90294 2.59852 8.66751 1.90176C9.46148 1.20501 10.2996 0.777455 11.1817 0.619102C12.1522 0.619102 12.9461 0.761621 13.5637 1.04666C14.1812 1.30002 14.7399 1.9651 15.2398 3.0419C15.7397 4.11871 16.2396 5.74975 16.7396 7.93502C17.2395 10.0886 17.8717 13.0498 18.6363 16.8186C19.6067 15.7102 20.533 14.5858 21.4152 13.4457C22.3268 12.2739 23.1648 11.1496 23.9294 10.0728C24.694 8.99598 25.3703 7.99836 25.9584 7.07991C26.5466 6.16146 27.0024 5.36969 27.3258 4.70461C27.6493 4.10287 27.811 3.48529 27.811 2.85188C27.811 2.28181 27.6493 1.53755 27.3258 0.619102C28.2668 1.22084 28.9726 1.79092 29.4431 2.32932C29.943 2.83605 30.3694 3.54864 30.7223 4.46709C30.6635 5.22718 30.4576 5.98727 30.1047 6.74737C29.7813 7.50746 29.1931 8.42591 28.3404 9.50271C27.517 10.5478 26.3701 11.8463 24.8998 13.3982C23.4295 14.9501 21.5034 16.882 19.1215 19.1939C19.6802 22.0443 20.2242 24.4512 20.7535 26.4148C21.2828 28.3784 21.8269 29.9936 22.3856 31.2604C22.9443 32.4956 23.5471 33.4457 24.1941 34.1108C24.841 34.7442 25.5615 35.1718 26.3554 35.3935Z" fill="white"/>
<path d="M40.722 16.011C41.0161 16.011 41.3543 16.0744 41.7366 16.2011C42.1483 16.2961 42.5158 16.4386 42.8393 16.6286C43.1628 16.787 43.4274 16.9611 43.6333 17.1512C43.8685 17.3412 43.9861 17.5154 43.9861 17.6737C43.398 19.0039 42.854 20.3499 42.3541 21.7117C41.8542 23.0419 41.4278 24.3246 41.0749 25.5597C40.722 26.7949 40.4427 27.9509 40.2368 29.0277C40.0604 30.1045 39.9722 31.0387 39.9722 31.8305C39.9722 32.7173 40.0604 33.4615 40.2368 34.0633C40.4133 34.6334 40.7073 35.0451 41.119 35.2984C40.7662 35.5518 40.3104 35.7577 39.7516 35.916C39.1929 36.0744 38.693 36.1535 38.2519 36.1535C36.664 36.1535 35.87 34.9817 35.87 32.6381C35.87 30.8329 36.4287 28.3626 37.5462 25.2272C36.958 26.684 36.2817 28.0617 35.5171 29.3602C34.7525 30.627 33.9733 31.7513 33.1793 32.7331C32.3853 33.7149 31.5767 34.5225 30.7533 35.1559C29.9593 35.7577 29.2242 36.1219 28.5478 36.2486C27.4598 36.1852 26.5776 35.631 25.9012 34.5859C25.2249 33.5091 24.8867 32.1472 24.8867 30.5003C24.8867 28.7268 25.2396 26.8582 25.9453 24.8946C26.6511 22.9311 27.548 21.11 28.636 19.4315C29.7535 17.7529 30.9591 16.3594 32.253 15.2509C33.5469 14.1108 34.7967 13.509 36.0023 13.4457C36.2964 13.5407 36.6199 13.7307 36.9727 14.0158C37.355 14.3008 37.7079 14.6334 38.0314 15.0134C38.3842 15.3934 38.6783 15.7893 38.9136 16.2011C39.1488 16.5811 39.2811 16.9136 39.3105 17.1987C38.1343 17.3887 36.9139 18.0063 35.6494 19.0514C34.4144 20.0965 33.2822 21.3634 32.253 22.8519C31.2532 24.3087 30.4298 25.8764 29.7829 27.555C29.1359 29.2335 28.8125 30.8012 28.8125 32.2581C28.8125 32.8598 29.0183 33.2398 29.43 33.3982C30.2828 33.2082 31.2679 32.4322 32.3853 31.0704C33.5028 29.6769 34.8555 27.5391 36.4434 24.6571C36.7375 24.087 37.0609 23.4536 37.4138 22.7569C37.7961 22.0601 38.1784 21.3317 38.5607 20.5716C38.943 19.8115 39.3105 19.0514 39.6634 18.2913C40.0457 17.4995 40.3986 16.7395 40.722 16.011Z" fill="white"/>
<path d="M45.2267 17.0087C45.0797 16.8186 44.9474 16.4227 44.8297 15.821C44.7121 15.1876 44.6533 14.6492 44.6533 14.2058C45.4179 14.2691 46.153 14.3325 46.8588 14.3958C47.5645 14.4275 48.2115 14.4592 48.7996 14.4908C49.2407 13.5407 49.7112 12.6064 50.2111 11.688C50.7404 10.7379 51.2403 9.88276 51.7108 9.12267C52.2107 8.3309 52.6665 7.66582 53.0782 7.12742C53.5193 6.58902 53.8575 6.24064 54.0927 6.08229C54.3868 6.08229 54.7544 6.14563 55.1955 6.27231C55.666 6.36732 56.1365 6.50984 56.607 6.69986C57.0775 6.85822 57.5039 7.0324 57.8862 7.22243C58.2684 7.41245 58.5331 7.60248 58.6801 7.7925C57.7979 8.99598 57.0334 10.1203 56.3864 11.1654C55.7689 12.1789 55.0926 13.3507 54.3574 14.6809C54.9455 14.6809 55.5337 14.665 56.1218 14.6334C56.7393 14.6017 57.3568 14.5542 57.9744 14.4908C58.1214 14.6492 58.239 14.855 58.3273 15.1084C58.4155 15.3301 58.4596 15.5676 58.4596 15.821C57.0187 16.3911 55.269 16.7078 53.2106 16.7711C52.4754 18.2913 51.8138 19.8115 51.2256 21.3317C50.6669 22.8202 50.1817 24.2612 49.77 25.6547C49.3877 27.0482 49.079 28.3626 48.8437 29.5977C48.6379 30.8329 48.5349 31.9414 48.5349 32.9231C48.5349 34.3167 49.0201 35.0926 49.9906 35.2509C50.8727 35.1242 51.7108 34.8867 52.5048 34.5383C53.2988 34.19 54.0045 33.7466 54.6221 33.2082C54.7985 33.4932 54.9014 33.7307 54.9308 33.9208C54.7544 34.2058 54.4456 34.5383 54.0045 34.9184C53.5928 35.2984 53.137 35.6627 52.6371 36.011C52.1372 36.3911 51.652 36.7078 51.1815 36.9611C50.711 37.2145 50.3581 37.357 50.1229 37.3887C49.3877 37.357 48.6526 37.1828 47.9174 36.8661C47.1822 36.5494 46.5059 36.1535 45.8884 35.6785C45.3002 35.2034 44.815 34.6809 44.4328 34.1108C44.0505 33.509 43.8593 32.9231 43.8593 32.3531C43.8593 31.593 43.9476 30.6429 44.124 29.5027C44.3298 28.3309 44.6092 27.0641 44.9621 25.7022C45.3149 24.3404 45.7266 22.9152 46.1971 21.4267C46.6676 19.9382 47.1822 18.4655 47.741 17.0087H45.2267Z" fill="white"/>
<path d="M70.4822 16.011C70.7763 16.011 71.1144 16.0744 71.4967 16.2011C71.9084 16.2961 72.276 16.4386 72.5994 16.6286C72.9229 16.787 73.1876 16.9611 73.3934 17.1512C73.6287 17.3412 73.7463 17.5154 73.7463 17.6737C73.1582 19.0039 72.6142 20.3499 72.1142 21.7117C71.6143 23.0419 71.1879 24.3246 70.8351 25.5597C70.4822 26.7949 70.2028 27.9509 69.997 29.0277C69.8205 30.1045 69.7323 31.0387 69.7323 31.8305C69.7323 32.7173 69.8205 33.4615 69.997 34.0633C70.1734 34.6334 70.4675 35.0451 70.8792 35.2984C70.5263 35.5518 70.0705 35.7577 69.5118 35.916C68.9531 36.0744 68.4531 36.1535 68.0121 36.1535C66.4241 36.1535 65.6301 34.9817 65.6301 32.6381C65.6301 30.8329 66.1889 28.3626 67.3063 25.2272C66.7182 26.684 66.0418 28.0617 65.2773 29.3602C64.5127 30.627 63.7334 31.7513 62.9395 32.7331C62.1455 33.7149 61.3368 34.5225 60.5134 35.1559C59.7195 35.7577 58.9843 36.1219 58.308 36.2486C57.2199 36.1852 56.3377 35.631 55.6614 34.5859C54.985 33.5091 54.6469 32.1472 54.6469 30.5003C54.6469 28.7268 54.9997 26.8582 55.7055 24.8946C56.4112 22.9311 57.3081 21.11 58.3962 19.4315C59.5136 17.7529 60.7193 16.3594 62.0132 15.2509C63.307 14.1108 64.5568 13.509 65.7625 13.4457C66.0565 13.5407 66.38 13.7307 66.7329 14.0158C67.1152 14.3008 67.468 14.6334 67.7915 15.0134C68.1444 15.3934 68.4384 15.7893 68.6737 16.2011C68.9089 16.5811 69.0413 16.9136 69.0707 17.1987C67.8944 17.3887 66.6741 18.0063 65.4096 19.0514C64.1745 20.0965 63.0424 21.3634 62.0132 22.8519C61.0133 24.3087 60.19 25.8764 59.543 27.555C58.8961 29.2335 58.5726 30.8012 58.5726 32.2581C58.5726 32.8598 58.7785 33.2398 59.1901 33.3982C60.0429 33.2082 61.028 32.4322 62.1455 31.0704C63.2629 29.6769 64.6156 27.5391 66.2036 24.6571C66.4976 24.087 66.8211 23.4536 67.174 22.7569C67.5563 22.0601 67.9385 21.3317 68.3208 20.5716C68.7031 19.8115 69.0707 19.0514 69.4236 18.2913C69.8058 17.4995 70.1587 16.7395 70.4822 16.011Z" fill="white"/>
<path d="M76.2547 6.41483C75.0784 6.41483 74.1668 6.06645 73.5199 5.3697C72.9024 4.64127 72.5936 3.77033 72.5936 2.75687C72.5936 2.50351 72.623 2.20263 72.6818 1.85426C72.77 1.50588 72.873 1.20501 72.9906 0.951644C73.3729 1.14167 73.9316 1.28419 74.6667 1.3792C75.4313 1.44254 76.3135 1.47421 77.3133 1.47421C78.813 1.47421 80.5039 1.41087 82.3859 1.28418C84.2973 1.12583 86.1205 0.967478 87.8555 0.809125C89.5905 0.650772 91.1196 0.508255 92.4429 0.381572C93.7662 0.223219 94.6189 0.144043 95.0012 0.144043C96.0893 0.144043 96.8685 0.587432 97.339 1.47421C97.8389 2.32932 98.2065 3.4853 98.4418 4.94214C97.6772 4.8788 96.9126 4.8313 96.1481 4.79963C95.4129 4.73628 94.7807 4.70461 94.2514 4.70461C93.3104 4.70461 92.3547 4.73628 91.3843 4.79963C90.4432 4.86297 89.4875 4.95798 88.5171 5.08466C88.1054 6.00311 87.6496 7.09575 87.1497 8.36257C86.6498 9.59773 86.1499 10.8962 85.65 12.2581C85.1795 13.6199 84.7237 14.9817 84.2826 16.3436C83.8415 17.6737 83.4592 18.8772 83.1358 19.954C82.4888 22.0443 81.9154 23.9762 81.4155 25.7497C80.945 27.5233 80.5186 29.186 80.1363 30.7379C79.7834 32.2581 79.4747 33.7149 79.21 35.1084C78.9454 36.5019 78.7101 37.8638 78.5043 39.1939C76.534 38.8772 74.8873 37.5471 73.564 35.2034C73.7993 34.2216 74.0786 33.1607 74.4021 32.0205C74.755 30.8487 75.1519 29.5344 75.593 28.0775C76.0635 26.589 76.6076 24.9105 77.2251 23.0419C77.8426 21.1733 78.5484 19.0514 79.3423 16.6761C79.6364 15.7893 79.9452 14.8709 80.2686 13.9208C80.5921 12.939 80.9009 11.973 81.1949 11.0229C81.5184 10.0728 81.7978 9.15434 82.033 8.26756C82.2977 7.38078 82.5182 6.57318 82.6947 5.84476C81.4596 6.00311 80.2834 6.14563 79.1659 6.27231C78.0779 6.36732 77.1075 6.41483 76.2547 6.41483Z" fill="white"/>
<path d="M101.203 15.536C101.086 17.4995 100.762 19.1939 100.233 20.6191C99.7037 22.0126 98.9392 23.2478 97.9393 24.3246C96.9689 25.3697 95.778 26.3198 94.3665 27.1749C92.955 28.03 91.3082 28.8535 89.4262 29.6452C89.4262 29.8353 89.4115 30.0411 89.3821 30.2628C89.3821 30.4528 89.3821 30.6587 89.3821 30.8804C89.3821 31.2921 89.4115 31.7197 89.4703 32.1631C89.5291 32.6064 89.632 33.0182 89.7791 33.3982C89.9261 33.7782 90.132 34.095 90.3966 34.3483C90.6613 34.57 90.9994 34.6809 91.4111 34.6809C92.2051 34.6809 92.9844 34.4908 93.7489 34.1108C94.5135 33.7307 95.234 33.2715 95.9103 32.7331C96.6161 32.163 97.263 31.5613 97.8511 30.9279C98.4687 30.2628 99.0127 29.6611 99.4832 29.1227C99.7772 29.4077 100.027 29.6769 100.233 29.9303C98.9097 31.8305 97.4541 33.414 95.8662 34.6809C94.3076 35.916 92.8226 36.7078 91.4111 37.0562C89.3821 36.8028 87.7941 36.011 86.6473 34.6809C85.5299 33.319 84.9711 31.688 84.9711 29.7878C84.9711 28.4893 85.1329 27.1749 85.4563 25.8448C85.8092 24.4829 86.2797 23.1844 86.8678 21.9493C87.4854 20.6824 88.1911 19.4948 88.9851 18.3863C89.8085 17.2779 90.676 16.3119 91.5876 15.4885C92.5286 14.665 93.4843 14.0158 94.4547 13.5407C95.4545 13.0657 96.4396 12.8281 97.41 12.8281C98.7627 13.0182 100.027 13.9208 101.203 15.536ZM98.1599 17.1037C97.3659 17.2303 96.5425 17.5787 95.6898 18.1488C94.837 18.7189 94.0283 19.479 93.2637 20.4291C92.5286 21.3792 91.8522 22.4877 91.2347 23.7545C90.6172 25.0213 90.1319 26.3832 89.7791 27.84C92.1316 26.5732 94.0871 25.0213 95.6456 23.1844C97.2042 21.3159 98.0423 19.2889 98.1599 17.1037Z" fill="white"/>
<path d="M115.596 16.2961C115.567 16.8978 115.464 17.5312 115.287 18.1963C115.14 18.8297 114.949 19.4156 114.714 19.954C114.479 20.4608 114.229 20.8883 113.964 21.2367C113.7 21.5851 113.45 21.7592 113.214 21.7592C112.891 21.7276 112.7 21.49 112.641 21.0467C112.641 20.9516 112.67 20.8091 112.729 20.6191C112.817 20.3974 112.906 20.1599 112.994 19.9065C113.082 19.6531 113.156 19.3998 113.214 19.1464C113.303 18.8931 113.347 18.6714 113.347 18.4813C113.347 18.0379 113.244 17.6737 113.038 17.3887C112.861 17.072 112.611 16.9136 112.288 16.9136C111.112 16.9136 110.215 17.7054 109.597 19.2889C108.98 20.8725 108.671 23.2003 108.671 26.2723C108.671 26.589 108.686 26.779 108.715 26.8424C109.333 26.8107 109.877 26.7949 110.347 26.7949C110.847 26.7632 111.332 26.7474 111.803 26.7474C111.832 26.8107 111.847 26.9374 111.847 27.1274C111.847 27.4125 111.788 27.6183 111.67 27.745C110.994 27.9033 110.45 28.0459 110.038 28.1725C109.656 28.2676 109.362 28.3626 109.156 28.4576C108.95 28.5526 108.818 28.6634 108.759 28.7901C108.73 28.8851 108.715 29.0277 108.715 29.2177C108.715 29.471 108.715 29.7244 108.715 29.9778C108.745 30.2311 108.759 30.5478 108.759 30.9279C108.759 33.5882 108.083 35.726 106.73 37.3412C105.407 38.9564 103.554 39.8907 101.172 40.144C100.761 40.1124 100.334 39.9857 99.8932 39.764C99.4522 39.5423 99.0258 39.2573 98.6141 38.9089C98.2318 38.5605 97.8936 38.1646 97.5996 37.7212C97.3055 37.3095 97.0996 36.882 96.982 36.4386C96.982 35.2351 97.2173 34.095 97.6878 33.0182C98.1583 31.9097 98.7905 30.9437 99.5845 30.1203C100.408 29.2652 101.364 28.5843 102.452 28.0775C103.569 27.5391 104.775 27.2224 106.069 27.1274C106.069 26.3357 105.995 25.5597 105.848 24.7996C105.701 24.0395 105.539 23.3111 105.363 22.6144C105.216 21.8859 105.069 21.1892 104.922 20.5241C104.775 19.8273 104.701 19.1464 104.701 18.4813C104.701 17.6262 104.863 16.787 105.186 15.9635C105.51 15.1084 105.936 14.3325 106.466 13.6357C106.995 12.9073 107.612 12.2897 108.318 11.783C109.024 11.2763 109.759 10.9279 110.524 10.7379C110.847 10.8329 111.274 11.1179 111.803 11.593C112.362 12.0364 112.906 12.5431 113.435 13.1132C113.964 13.6832 114.435 14.2691 114.846 14.8709C115.258 15.441 115.508 15.916 115.596 16.2961ZM101.04 37.9588C101.746 37.6421 102.407 37.1828 103.025 36.5811C103.672 35.9794 104.231 35.2984 104.701 34.5383C105.172 33.7782 105.539 32.9706 105.804 32.1155C106.098 31.2604 106.245 30.4212 106.245 29.5977C105.657 29.6927 105.01 29.9936 104.304 30.5003C103.598 30.9754 102.937 31.5613 102.319 32.2581C101.702 32.9231 101.187 33.6199 100.775 34.3483C100.364 35.0767 100.158 35.7102 100.158 36.2486C100.158 36.9453 100.452 37.5154 101.04 37.9588Z" fill="white"/>
<path d="M115.363 17.0087C115.216 16.8186 115.083 16.4227 114.966 15.821C114.848 15.1876 114.789 14.6492 114.789 14.2058C115.554 14.2691 116.289 14.3325 116.995 14.3958C117.7 14.4275 118.347 14.4592 118.935 14.4908C119.377 13.5407 119.847 12.6064 120.347 11.688C120.876 10.7379 121.376 9.88276 121.847 9.12267C122.347 8.3309 122.802 7.66582 123.214 7.12742C123.655 6.58902 123.993 6.24064 124.229 6.08229C124.523 6.08229 124.89 6.14563 125.331 6.27231C125.802 6.36732 126.272 6.50984 126.743 6.69986C127.213 6.85822 127.64 7.0324 128.022 7.22243C128.404 7.41245 128.669 7.60248 128.816 7.7925C127.934 8.99598 127.169 10.1203 126.522 11.1654C125.905 12.1789 125.228 13.3507 124.493 14.6809C125.081 14.6809 125.67 14.665 126.258 14.6334C126.875 14.6017 127.493 14.5542 128.11 14.4908C128.257 14.6492 128.375 14.855 128.463 15.1084C128.551 15.3301 128.595 15.5676 128.595 15.821C127.155 16.3911 125.405 16.7078 123.346 16.7711C122.611 18.2913 121.95 19.8115 121.361 21.3317C120.803 22.8202 120.318 24.2612 119.906 25.6547C119.524 27.0482 119.215 28.3626 118.98 29.5977C118.774 30.8329 118.671 31.9414 118.671 32.9231C118.671 34.3167 119.156 35.0926 120.126 35.2509C121.009 35.1242 121.847 34.8867 122.641 34.5383C123.435 34.19 124.14 33.7466 124.758 33.2082C124.934 33.4932 125.037 33.7307 125.067 33.9208C124.89 34.2058 124.581 34.5383 124.14 34.9184C123.729 35.2984 123.273 35.6627 122.773 36.011C122.273 36.3911 121.788 36.7078 121.317 36.9611C120.847 37.2145 120.494 37.357 120.259 37.3887C119.524 37.357 118.788 37.1828 118.053 36.8661C117.318 36.5494 116.642 36.1535 116.024 35.6785C115.436 35.2034 114.951 34.6809 114.569 34.1108C114.186 33.509 113.995 32.9231 113.995 32.3531C113.995 31.593 114.083 30.6429 114.26 29.5027C114.466 28.3309 114.745 27.0641 115.098 25.7022C115.451 24.3404 115.863 22.9152 116.333 21.4267C116.804 19.9382 117.318 18.4655 117.877 17.0087H115.363Z" fill="white"/>
</svg>
